<?xml version="1.0" standalone="no"?>
<!DOCTYPE svg PUBLIC "-//W3C//DTD SVG 20010904//EN"
 "http://www.w3.org/TR/2001/REC-SVG-20010904/DTD/svg10.dtd">
<svg version="1.0" xmlns="http://www.w3.org/2000/svg"
 width="128.000000pt" height="128.000000pt" viewBox="0 0 128.000000 128.000000"
 preserveAspectRatio="xMidYMid meet">

<g transform="translate(0.000000,128.000000) scale(0.100000,-0.100000)"
fill="#000000" stroke="none">
<path d="M834 1274 c-12 -3 -40 -21 -62 -40 -40 -34 -42 -35 -67 -18 -37 24
-56 5 -34 -34 l16 -27 -275 -277 -275 -276 -5 -54 c-4 -48 -1 -58 23 -86 l27
-33 -46 -49 c-48 -52 -56 -74 -30 -84 10 -4 34 11 68 44 l52 50 32 -33 32 -33
-90 -89 c-91 -90 -103 -111 -74 -122 11 -4 43 21 103 81 47 47 91 86 97 86 5
0 25 -16 44 -35 l34 -35 -68 -69 c-65 -66 -76 -91 -38 -91 9 0 45 28 79 62
l63 62 23 -22 c18 -17 35 -22 78 -22 l54 0 147 147 c82 81 148 154 148 161 0
7 -7 15 -16 19 -11 4 -42 -20 -101 -78 l-85 -84 7 45 c6 42 19 57 158 198 144
144 154 152 191 152 l39 0 -58 -61 c-54 -56 -57 -62 -41 -77 15 -15 22 -11 94
60 71 70 79 75 97 63 31 -22 52 -4 37 30 -11 25 -10 30 22 66 41 44 51 75 42
123 -10 53 -95 174 -173 246 -115 106 -201 148 -269 134z m193 -132 c51 -41
110 -104 138 -146 17 -26 17 -28 -11 -67 l-28 -40 27 -54 c14 -30 23 -57 18
-59 -5 -3 -41 34 -80 83 -76 95 -195 211 -273 264 -71 48 -56 67 22 27 50 -26
59 -25 95 5 17 13 33 24 37 25 3 0 28 -17 55 -38z m-164 -122 l52 -49 -71 -1
c-91 0 -106 13 -97 88 l6 51 29 -20 c15 -11 52 -43 81 -69z m-170 18 c-5 -39
-17 -55 -147 -186 -139 -141 -169 -162 -231 -162 -14 0 39 59 175 195 107 107
198 195 201 195 4 0 5 -19 2 -42z m127 -463 l-135 -135 -120 120 -120 120 135
135 135 135 120 -120 120 -120 -135 -135z m178 314 l24 -29 -69 0 c-64 0 -72
2 -98 30 l-29 30 75 -1 c70 0 75 -2 97 -30z m91 -108 l21 -29 -31 -6 c-57 -11
-75 -6 -109 29 l-34 35 66 0 c62 0 68 -2 87 -29z m-565 -260 l129 -129 -11
-58 c-7 -31 -14 -60 -17 -63 -6 -5 -355 339 -355 350 0 5 70 22 115 28 6 0 68
-57 139 -128z m-115 -115 c168 -168 193 -197 182 -210 -8 -9 -29 -16 -50 -16
-33 0 -48 12 -193 157 l-158 158 0 46 c0 43 5 59 19 59 4 0 94 -87 200 -194z"/>
<path d="M669 754 c-10 -13 -6 -22 29 -57 39 -39 43 -41 59 -24 16 16 15 18
-12 48 -42 44 -60 52 -76 33z"/>
<path d="M914 515 c-4 -9 -2 -21 4 -27 15 -15 44 -1 40 19 -4 23 -36 29 -44 8z"/>
<path d="M35 270 c-4 -7 -3 -16 3 -22 14 -14 45 -2 40 15 -6 16 -34 21 -43 7z"/>
<path d="M26 61 c-28 -29 -30 -61 -4 -61 19 0 68 52 68 72 0 28 -33 22 -64
-11z"/>
</g>
</svg>
