<?xml version="1.0" standalone="no"?>
<!DOCTYPE svg PUBLIC "-//W3C//DTD SVG 20010904//EN"
 "http://www.w3.org/TR/2001/REC-SVG-20010904/DTD/svg10.dtd">
<svg version="1.0" xmlns="http://www.w3.org/2000/svg"
 width="64.000000pt" height="64.000000pt" viewBox="0 0 64.000000 64.000000"
 preserveAspectRatio="xMidYMid meet">

<g transform="translate(0.000000,64.000000) scale(0.100000,-0.100000)"
fill="#000000" stroke="none">
<path d="M155 435 c-5 -2 -42 -13 -80 -25 l-71 -21 1 -66 0 -66 41 -22 c64
-34 70 -35 108 -14 30 16 57 19 165 19 112 0 134 -3 164 -20 27 -16 40 -18 60
-11 14 5 28 15 32 20 3 6 14 11 23 11 11 0 23 13 30 33 12 30 11 33 -14 54
-29 22 -94 43 -139 43 -14 0 -42 11 -63 25 -20 13 -57 29 -82 34 -43 10 -154
14 -175 6z m-57 -52 c-10 -2 -26 -2 -35 0 -10 3 -2 5 17 5 19 0 27 -2 18 -5z"/>
</g>
</svg>
